<svg width="197" height="45" viewBox="0 0 197 45" fill="none" xmlns="http://www.w3.org/2000/svg">
<path d="M177.64 33.3299L176.537 18.6243H176.42C175.903 20.3291 175.496 22.04 174.917 23.7449L171.559 33.3299H161.941L157.825 18.6243H157.707C157.652 20.3598 157.707 22.0707 157.535 23.8062L156.549 33.3299H143.856L148.958 9.93457H163.678L167.036 22.3773H167.153C167.498 20.9178 167.788 19.4889 168.312 18.0356L171.152 9.93457H185.7L189.933 33.3299H177.646H177.64Z" fill="#FCFCFC"/>
<path d="M12.1458 21.6352C12.1458 19.0596 13.6554 15.4292 19.7923 15.4292C22.2262 15.4292 23.6187 15.9259 25.2946 16.7967V10.0939C23.3845 9.6892 21.3574 9.53589 19.2686 9.53589C13.5321 9.53589 0.0875244 11.302 0.0875244 21.7947C0.0875244 21.8253 0.0875244 21.8499 0.0875244 21.8744H12.1458C12.1458 21.7947 12.1396 21.715 12.1396 21.6352H12.1458ZM19.5643 27.8413C14.2715 27.8413 12.5155 25.0571 12.2074 22.5122H0.118332C0.598937 30.0306 8.62134 33.7346 17.9993 33.7346C20.6057 33.7346 22.7499 33.4525 25.1283 32.8944L25.8245 26.345C23.9144 27.2771 22.2323 27.8352 19.5643 27.8352V27.8413Z" fill="#FCFCFC"/>
<path d="M45.5232 9.93457V21.8683H57.3473V9.93457H45.5232ZM39.4972 9.93457H27.6792V21.8683H39.4972V9.93457ZM45.5232 24.6709C45.5232 25.2596 45.5787 26.0691 45.2336 26.7191C44.944 27.3385 44.1923 27.8352 42.5102 27.8352C40.8281 27.8352 40.1318 27.3385 39.7867 26.6885C39.4417 26.0691 39.4972 25.2596 39.4972 24.6402V22.5122H27.6792V25.2289C27.6792 28.0499 28.8376 33.7285 42.5163 33.7285C56.1951 33.7285 57.3535 28.0499 57.3535 25.2289V22.5122H45.5294V24.677L45.5232 24.6709Z" fill="#FCFCFC"/>
<path d="M60.7608 21.3225C61.0135 21.5126 61.2907 21.6905 61.5742 21.8683H79.2148C79.2148 21.8683 79.1963 21.856 79.1902 21.8499C77.8593 20.7951 75.8876 19.9243 73.3983 18.9983C72.7575 18.7162 71.8887 18.4096 71.254 18.0355C70.6194 17.6614 70.0957 17.226 70.0957 16.7293C70.0957 15.8278 71.7778 15.3004 73.1641 15.3004C75.8876 15.3004 78.7281 16.6373 80.1206 17.8147V10.7072C77.6313 9.99585 74.5567 9.52979 71.7162 9.52979C61.6358 9.52979 58.3886 14.4971 58.3886 17.226C58.3886 18.9308 59.3129 20.2371 60.767 21.3225H60.7608ZM79.9357 22.5122H62.6771C63.8355 23.1316 65.1664 23.7019 66.6082 24.3029C67.3599 24.5788 68.0562 24.8609 68.5799 25.2044C69.1591 25.5478 69.5103 25.9464 69.5103 26.5044C69.5103 27.5286 67.6557 28.056 66.0352 28.056C63.0221 28.056 60.1816 26.7559 58.5611 25.4497V32.7718C61.34 33.3912 64.4147 33.7346 67.4277 33.7346C75.6534 33.7346 81.3344 30.2575 81.3344 25.9157C81.3344 24.4991 80.8477 23.4259 79.9419 22.5122H79.9357Z" fill="#FCFCFC"/>
<path d="M87.0092 33.3299H98.8272V22.5122H87.0092V33.3299ZM80.5211 9.93457V15.6439H87.0092V21.8683H98.8272V15.6439H103.683L105.371 9.93457H80.5211Z" fill="#FCFCFC"/>
<path d="M123.246 1.19795e-05C111.576 -0.0122529 102.105 9.39494 102.093 21.0037C102.093 21.2919 102.105 21.5801 102.111 21.8684H106.129C105.426 21.4698 105.383 20.415 104.946 19.7527C105.389 19.0904 104.872 18.4526 104.878 17.8087C104.884 17.3365 105.161 16.8275 105.204 16.3124C105.241 15.8892 105.285 15.3986 105.272 15.0123C105.248 14.2886 104.859 13.89 104.878 13.1909C105.13 13.1909 105.796 13.3075 106.116 13.4485C106.289 13.2707 105.932 12.8046 106.116 12.6022C111.773 12.4489 117.706 12.5838 123.474 12.5348C123.708 12.4857 123.769 12.2711 123.868 12.081H124.194C124.416 12.3079 124.287 12.6084 124.127 12.7985C124.244 13.007 124.768 13.0867 124.848 12.7985C125.39 13.3626 126.277 13.2891 127.066 13.516C127.399 13.2216 127.879 13.0683 128.113 12.6697C128.526 12.6881 128.742 12.9088 129.222 12.8659C129.376 13.0131 129.45 13.2523 129.549 13.4485C129.709 13.4853 129.845 13.5405 130.073 13.516C130.214 13.6815 130.233 13.9636 130.467 14.0372C130.294 15.417 132.063 14.8712 132.944 15.2085C133.104 15.5949 133.745 15.9567 133.4 16.4411C133.123 16.4534 132.981 16.3369 132.815 16.2449C132.457 16.4289 132.223 16.7355 132.297 17.3487C131.896 17.5389 131.853 18.0785 131.576 18.3851C132.211 18.1153 133.024 17.8516 133.924 17.6738C134.022 17.3794 133.677 17.5327 133.597 17.4162C134.121 16.4841 136.13 17.0299 136.536 15.9873C137.368 15.9015 138.052 16.1039 138.625 15.9873C139.691 15.7666 139.506 14.6382 140.19 14.0372C140.572 14.1108 141.077 14.0679 141.237 14.3622C140.979 15.276 141.459 15.5397 141.693 16.1161C141.219 16.7294 138.927 16.9563 139.284 18.195C139.364 18.471 139.512 18.4955 139.87 18.5875C139.814 19.1394 138.865 18.8083 138.631 19.1701C137.947 19.1149 137.504 19.305 137.263 19.6913C137.368 20.5131 136.986 20.8442 136.542 21.1202C136.555 21.7641 136.394 22.2302 136.019 22.4816C135.939 22.2179 136.253 21.666 135.821 21.5066C135.667 21.6108 135.667 22.1382 135.754 22.3528C135.766 22.3835 135.951 22.4387 135.951 22.4203C135.963 22.4939 135.747 22.5184 135.754 22.5491C135.797 22.6779 136.025 22.7392 136.08 22.8741C136.197 23.1439 136.012 23.4689 136.21 23.7817C136.093 24.1006 135.556 23.9963 135.686 24.5605C134.99 24.5789 134.977 25.278 134.318 25.3393C133.918 26.3021 132.673 26.5904 132.494 27.6145C132.285 28.7735 133.338 30.1043 133.406 31.1897C133.437 31.619 133.418 32.4469 132.691 32.6186C132.26 31.9317 131.94 31.4657 131.712 30.6071C131.675 30.4661 131.521 30.3189 131.514 30.2146C131.508 30.0368 131.687 29.816 131.644 29.6321C131.539 29.1599 130.954 28.8655 130.732 28.5282C130.479 28.6018 130.258 28.7061 130.079 28.8532C129.481 28.2461 128.212 27.9272 127.337 28.4608C127.115 28.933 127.583 28.982 127.466 29.307C127.121 29.0127 126.77 29.3561 126.419 29.307C126.172 29.2764 126.123 29.0679 125.895 28.982C125.211 28.7122 124.601 28.798 123.942 28.8532C123.874 29.7731 122.506 29.7302 122.247 30.4783C122.081 30.9567 122.383 31.3308 122.247 31.9072C121.81 31.8398 121.545 31.6067 121.138 31.5147C120.953 30.9199 120.485 29.816 120.091 29.2396C119.869 28.9146 119.481 28.6386 118.982 28.7183C118.717 28.7981 118.76 29.1967 118.526 29.3009C117.725 29.3377 117.688 28.5834 117.417 28.1296C117.127 27.6513 116.579 27.4428 116.308 27.0258C115.716 26.9338 115.39 27.1116 115.199 27.4182C113.215 27.639 112.161 26.9338 111.021 26.3144C110.51 26.2837 110.165 26.4125 109.715 26.4432C109.382 25.4313 108.55 24.9223 107.429 24.6893C107.355 23.7265 106.486 23.334 106.326 22.5061H102.148C102.912 33.4158 112.038 42.038 123.196 42.0503C134.866 42.0626 144.337 32.6554 144.349 21.0405C144.361 9.43787 134.91 0.0122769 123.246 1.19795e-05Z" fill="#FCFCFC"/>
<path d="M129.284 18.9615C129.284 20.0224 128.421 20.8871 127.349 20.8871C126.277 20.8871 125.415 20.0224 125.415 18.9615C125.415 17.9006 126.283 17.0359 127.349 17.0359C128.415 17.0359 129.284 17.8944 129.284 18.9615Z" stroke="#FCFCFC" stroke-miterlimit="10"/>
<path d="M133.375 18.9617C133.375 22.2732 130.677 24.9592 127.349 24.9592C124.022 24.9592 121.323 22.2732 121.323 18.9617C121.323 15.6501 124.022 12.9641 127.349 12.9641C130.677 12.9641 133.375 15.6501 133.375 18.9617Z" stroke="#FCFCFC" stroke-miterlimit="10"/>
<path d="M197 30.9934C197 32.4959 195.903 33.7346 194.24 33.7346C192.305 33.7346 191.479 32.2935 191.479 30.9934C191.479 29.6933 192.293 28.2522 194.24 28.2522C196.045 28.2522 197 29.5645 197 30.9934ZM192.163 30.9934C192.163 32.2199 192.983 33.0662 194.221 33.0662C195.46 33.0662 196.31 32.1954 196.31 30.9627C196.31 29.7301 195.453 28.9206 194.221 28.9206C192.989 28.9206 192.163 29.7608 192.163 30.9934ZM193.648 32.4897H192.964V29.5278H194.64C195.262 29.5461 195.632 29.773 195.632 30.4415C195.632 30.9995 195.343 31.2142 194.843 31.251L195.54 32.4959H194.763L194.129 31.3246H193.648V32.4959V32.4897ZM193.648 30.0613V30.7849H194.486C194.782 30.7849 194.942 30.6868 194.942 30.4476C194.942 30.1165 194.726 30.0613 194.332 30.0613H193.642H193.648Z" fill="#FCFCFC"/>
<path d="M7.91274 38.6897C7.5184 38.1562 6.87759 37.8741 6.21214 37.8741C5.02911 37.8741 4.2281 38.7817 4.2281 39.9284C4.2281 41.0752 5.03527 41.946 6.24295 41.946C6.87759 41.946 7.50607 41.6394 7.91274 41.1611V43.473C7.27193 43.6692 6.80365 43.8164 6.20598 43.8164C5.17083 43.8164 4.17881 43.4239 3.40861 42.7248C2.58912 41.9889 2.21326 41.0261 2.21326 39.9223C2.21326 38.9104 2.60144 37.9354 3.31002 37.2056C4.04325 36.4575 5.09689 36.0037 6.14436 36.0037C6.76668 36.0037 7.33971 36.1386 7.91274 36.3777V38.6897Z" fill="#FCFCFC"/>
<path d="M16.9765 39.769C16.9765 42.1668 15.2451 43.8593 12.8543 43.8593C10.4636 43.8593 8.73224 42.1668 8.73224 39.769C8.73224 37.5245 10.7101 35.9546 12.8543 35.9546C14.9986 35.9546 16.9765 37.5245 16.9765 39.769ZM10.7532 39.7812C10.7532 41.0568 11.7021 41.9951 12.8605 41.9951C14.0189 41.9951 14.9678 41.0629 14.9678 39.7812C14.9678 38.7571 14.0189 37.825 12.8605 37.825C11.7021 37.825 10.7532 38.7571 10.7532 39.7812Z" fill="#FCFCFC"/>
<path d="M18.6956 36.2H20.5995L22.1091 40.1615L23.7111 36.2H25.6397L26.7673 43.6141H24.8325L24.2903 39.3459H24.2718L22.485 43.6141H21.7148L20.008 39.3459H19.9895L19.3672 43.6141H17.4386L18.7017 36.2H18.6956Z" fill="#FCFCFC"/>
<path d="M27.5867 36.2H30.5505C32.1525 36.2 33.2554 36.9358 33.2554 38.6407C33.2554 40.3455 32.3065 41.155 30.6182 41.155H29.5215V43.6141H27.5867V36.2ZM29.5215 39.6035H29.848C30.5505 39.6035 31.2406 39.6035 31.2406 38.6959C31.2406 37.7883 30.5998 37.7515 29.848 37.7515H29.5215V39.5973V39.6035Z" fill="#FCFCFC"/>
<path d="M35.2887 42.3263L34.7773 43.6141H32.7255L35.5907 36.2H37.7041L40.5076 43.6141H38.4435L37.9567 42.3263H35.2887ZM36.6443 38.4935H36.6258L35.8248 40.8545H37.433L36.6443 38.4935Z" fill="#FCFCFC"/>
<path d="M41.1053 36.2H43.04L46.5891 40.7318H46.6076V36.2H48.5423V43.6141H46.6076L43.0585 39.0699H43.04V43.6141H41.1053V36.2Z" fill="#FCFCFC"/>
<path d="M51.7464 43.6141H49.8116V36.2H51.7464V43.6141Z" fill="#FCFCFC"/>
<path d="M54.9504 37.8312V39.07H57.1316V40.7012H54.9504V41.9768H57.2487V43.608H53.0095V36.1938H57.2487V37.8251H54.9504V37.8312Z" fill="#FCFCFC"/>
<path d="M62.5354 38.1072C62.178 37.8128 61.7282 37.6166 61.2537 37.6166C60.8964 37.6166 60.4219 37.8251 60.4219 38.2359C60.4219 38.6468 60.9457 38.8369 61.2784 38.9412L61.7713 39.0884C62.8065 39.395 63.6075 39.9162 63.6075 41.1121C63.6075 41.848 63.4288 42.6084 62.8373 43.1051C62.2519 43.5957 61.4756 43.8042 60.7238 43.8042C59.7873 43.8042 58.8692 43.4915 58.1052 42.9579L58.937 41.4064C59.4237 41.8296 59.9968 42.173 60.6561 42.173C61.112 42.173 61.5926 41.9461 61.5926 41.4248C61.5926 40.9036 60.8348 40.6951 60.4158 40.5785C59.2019 40.2351 58.4009 39.9224 58.4009 38.4812C58.4009 37.0401 59.4792 35.9915 60.9703 35.9915C61.722 35.9915 62.6401 36.2245 63.2994 36.5986L62.5292 38.0949L62.5354 38.1072Z" fill="#FCFCFC"/>
<path d="M67.095 41.7375L65.2773 45H64.1189L65.4005 41.7375H67.0888H67.095Z" fill="#FCFCFC"/>
<path d="M73.2504 43.6141H71.3156V36.2H73.2504V43.6141Z" fill="#FCFCFC"/>
<path d="M74.5135 36.2H76.4482L79.9973 40.7318H80.0158V36.2H81.9505V43.6141H80.0158L76.4667 39.0699H76.4482V43.6141H74.5135V36.2Z" fill="#FCFCFC"/>
<path d="M88.5435 38.6897C88.1491 38.1562 87.5083 37.8741 86.8429 37.8741C85.6598 37.8741 84.8588 38.7817 84.8588 39.9284C84.8588 41.0752 85.666 41.946 86.8737 41.946C87.5022 41.946 88.1368 41.6394 88.5435 41.1611V43.473C87.9027 43.6692 87.4344 43.8164 86.8367 43.8164C85.8016 43.8164 84.8095 43.4239 84.0393 42.7248C83.2199 41.9889 82.844 41.0261 82.844 39.9223C82.844 38.9104 83.226 37.9354 83.9408 37.2056C84.674 36.4575 85.7276 36.0037 86.7751 36.0037C87.3974 36.0037 87.9704 36.1386 88.5435 36.3777V38.6897Z" fill="#FCFCFC"/>
<path d="M91.9632 42.6634C91.9632 43.295 91.4456 43.8163 90.8048 43.8163C90.164 43.8163 89.6464 43.295 89.6464 42.6634C89.6464 42.0318 90.1578 41.5105 90.8048 41.5105C91.4518 41.5105 91.9632 42.0195 91.9632 42.6634Z" fill="#FCFCFC"/>
<path d="M5.31258 8.03353H3.37784V2.25062H1.77582V0.619385H6.91459V2.25062H5.31258V8.03353Z" fill="#FCFCFC"/>
<path d="M12.3491 3.48324V0.619385H14.2839V8.03353H12.3491V4.99796H9.55175V8.03353H7.617V0.619385H9.55175V3.48324H12.3491Z" fill="#FCFCFC"/>
<path d="M17.4817 2.25062V3.48938H19.6629V5.12061H17.4817V6.39616H19.7862V8.0274H15.547V0.619385H19.7862V2.25062H17.4817Z" fill="#FCFCFC"/>
<path d="M139.919 18.9616C139.919 25.8668 134.293 31.4657 127.349 31.4657C120.405 31.4657 114.786 25.8668 114.786 18.9616C114.786 12.0565 120.411 6.45752 127.349 6.45752C134.287 6.45752 139.919 12.0565 139.919 18.9616V18.9616Z" stroke="#FCFCFC" stroke-miterlimit="10"/>
<path d="M136.16 37.1198C133.499 38.4015 130.51 39.119 127.355 39.119C116.172 39.119 107.102 30.092 107.102 18.9616C107.102 13.289 109.456 8.1623 113.245 4.50122" stroke="#FCFCFC" stroke-miterlimit="10"/>
</svg>
